<svg xmlns="http://www.w3.org/2000/svg" viewBox="0 0 64 64" fill="none">
  <!-- Calendar Background with Primary Color -->
  <rect x="8" y="12" width="48" height="44" rx="4" fill="#ec4899" stroke="#db2777" stroke-width="2"/>
  
  <!-- Calendar Header with Darker Primary -->
  <rect x="8" y="12" width="48" height="12" rx="4" fill="#db2777"/>
  
  <!-- Calendar Rings -->
  <circle cx="20" cy="18" r="2" fill="#f472b6"/>
  <circle cx="32" cy="18" r="2" fill="#f472b6"/>
  <circle cx="44" cy="18" r="2" fill="#f472b6"/>
  
  <!-- Calendar Grid Lines -->
  <line x1="20" y1="24" x2="20" y2="56" stroke="#f472b6" stroke-width="1" opacity="0.3"/>
  <line x1="32" y1="24" x2="32" y2="56" stroke="#f472b6" stroke-width="1" opacity="0.3"/>
  <line x1="44" y1="24" x2="44" y2="56" stroke="#f472b6" stroke-width="1" opacity="0.3"/>
  <line x1="8" y1="32" x2="56" y2="32" stroke="#f472b6" stroke-width="1" opacity="0.3"/>
  <line x1="8" y1="40" x2="56" y2="40" stroke="#f472b6" stroke-width="1" opacity="0.3"/>
  <line x1="8" y1="48" x2="56" y2="48" stroke="#f472b6" stroke-width="1" opacity="0.3"/>
  
  <!-- Event Dots with Secondary Color -->
  <circle cx="20" cy="36" r="3" fill="#f59e0b"/>
  <circle cx="32" cy="44" r="3" fill="#fbbf24"/>
  <circle cx="44" cy="52" r="3" fill="#d97706"/>
  
  <!-- Star Decoration with Secondary Color -->
  <path d="M32 4 L34 10 L40 10 L35 14 L37 20 L32 16 L27 20 L29 14 L24 10 L30 10 Z" fill="#f59e0b" opacity="0.9"/>
</svg>

